<svg xmlns="http://www.w3.org/2000/svg" viewBox="0 0 500 500"><path fill="#ebebeb" d="M0 382.4h500v.25H0zM416.78 398.49h33.12v.25h-33.12zM322.53 401.21h8.69v.25h-8.69zM396.59 389.21h19.19v.25h-19.19zM52.46 390.89h43.19v.25H52.46zM104.56 390.89h6.33v.25h-6.33zM131.47 395.11h93.68v.25h-93.68zM237 337.8H43.91a5.71 5.71 0 01-5.7-5.71V60.66a5.71 5.71 0 015.7-5.66H237a5.71 5.71 0 015.71 5.71v271.38a5.71 5.71 0 01-5.71 5.71zM43.91 55.2a5.46 5.46 0 00-5.45 5.46v271.43a5.46 5.46 0 005.45 5.46H237a5.47 5.47 0 005.46-5.46V60.66A5.47 5.47 0 00237 55.2zM453.31 337.8h-193.1a5.72 5.72 0 01-5.71-5.71V60.66a5.72 5.72 0 015.71-5.66h193.1a5.71 5.71 0 015.69 5.66v271.43a5.71 5.71 0 01-5.69 5.71zM260.21 55.2a5.47 5.47 0 00-5.46 5.46v271.43a5.47 5.47 0 005.46 5.46h193.1a5.47 5.47 0 005.46-5.46V60.66a5.47 5.47 0 00-5.46-5.46z"/><path fill="#f5f5f5" d="M88.33 92.08H183v213.27H88.33z"/><path fill="#fafafa" d="M179.43 96.08v205.27H91.9V96.08z"/><path fill="#f5f5f5" d="M134.66 95.05h2.01v208.3h-2.01z"/><path fill="#f5f5f5" d="M86.14 89.3h99.04v10.04H86.14zM86.14 100.45h99.04v1.19H86.14zM86.14 103.15h99.04v1.19H86.14zM86.14 105.85h99.04v1.19H86.14zM86.14 108.55h99.04v1.19H86.14zM86.14 111.25h99.04v1.19H86.14zM86.14 113.95h99.04v1.19H86.14zM86.14 116.65h99.04v1.19H86.14zM86.14 119.35h99.04v1.19H86.14zM86.14 122.05h99.04v1.19H86.14zM86.14 124.75h99.04v1.19H86.14zM86.14 127.45h99.04v1.19H86.14zM86.14 130.15h99.04v1.19H86.14zM86.14 132.85h99.04v1.19H86.14zM86.14 135.55h99.04v1.19H86.14zM86.14 138.25h99.04v1.19H86.14zM86.14 140.95h99.04v1.19H86.14zM86.14 143.65h99.04v1.19H86.14zM86.14 146.35h99.04v1.19H86.14zM200.42 92.08h94.67v213.27h-94.67z"/><path fill="#fafafa" d="M291.52 96.07v205.27h-87.53V96.07z"/><path fill="#f5f5f5" d="M246.75 95.05h2.01v208.3h-2.01z"/><path fill="#f5f5f5" d="M198.23 89.3h99.04v10.04h-99.04zM198.23 100.45h99.04v1.19h-99.04zM198.23 103.15h99.04v1.19h-99.04zM198.23 105.85h99.04v1.19h-99.04zM198.23 108.55h99.04v1.19h-99.04zM198.23 111.25h99.04v1.19h-99.04zM198.23 113.95h99.04v1.19h-99.04zM198.23 116.65h99.04v1.19h-99.04zM198.23 119.35h99.04v1.19h-99.04zM198.23 122.05h99.04v1.19h-99.04zM198.23 124.75h99.04v1.19h-99.04zM198.23 127.45h99.04v1.19h-99.04zM198.23 130.15h99.04v1.19h-99.04zM198.23 132.85h99.04v1.19h-99.04zM198.23 135.55h99.04v1.19h-99.04zM198.23 138.25h99.04v1.19h-99.04zM198.23 140.95h99.04v1.19h-99.04zM198.23 143.65h99.04v1.19h-99.04zM198.23 146.35h99.04v1.19h-99.04zM312.5 92.08h94.67v213.27H312.5z"/><path fill="#fafafa" d="M403.6 96.08v205.27h-87.53V96.08z"/><path fill="#f5f5f5" d="M358.83 95.05h2.01v208.3h-2.01z"/><path fill="#f5f5f5" d="M310.32 89.3h99.04v10.04h-99.04zM310.32 100.45h99.04v1.19h-99.04zM310.32 103.15h99.04v1.19h-99.04zM310.32 105.85h99.04v1.19h-99.04zM310.32 108.55h99.04v1.19h-99.04zM310.32 111.25h99.04v1.19h-99.04zM310.32 113.95h99.04v1.19h-99.04zM310.32 116.65h99.04v1.19h-99.04zM310.32 119.35h99.04v1.19h-99.04zM310.32 122.05h99.04v1.19h-99.04zM310.32 124.75h99.04v1.19h-99.04zM310.32 127.45h99.04v1.19h-99.04zM310.32 130.15h99.04v1.19h-99.04zM310.32 132.85h99.04v1.19h-99.04zM310.32 135.55h99.04v1.19h-99.04zM310.32 138.25h99.04v1.19h-99.04zM310.32 140.95h99.04v1.19h-99.04zM310.32 143.65h99.04v1.19h-99.04zM310.32 146.35h99.04v1.19h-99.04zM331.85 282.52H452a8.24 8.24 0 01-7.88 8.23c-12.91.58-32.77 2.63-39.07 9.77-11.74 13.32-10.61 60.1 3.46 70.93 4.41 3.4 17.26 10.14 17.26 10.14h-67.7s12-6.88 16.19-10.14c14-10.92 14.39-57.67 2.59-70.93-6.05-6.8-24.67-9-37.16-9.69a8.31 8.31 0 01-7.84-8.31z"/><path d="M437.11 291.19c-12.21 1-26.83 3.39-32.07 9.33a23.59 23.59 0 00-4 6.88h-20.15a23.9 23.9 0 00-4-6.88c-5.26-5.91-20-8.34-32-9.33z" fill="#e6e6e6"/><path fill="#ebebeb" d="M383.02 282.58l1.64-18.68h-23.68l-1.64 18.68h23.68z"/><path fill="#e0e0e0" d="M383.02 282.58l1.64-18.68h1.27l-1.63 18.68h-1.28z"/><path fill="#f0f0f0" d="M380.78 280.68l1.3-14.87h-18.86l-1.3 14.87h18.86z"/><path fill="#fafafa" d="M379.33 279.45l1.09-12.42h-15.75l-1.09 12.42h15.75z"/><path fill="#e6e6e6" d="M390.71 282.52h23.79l-2.64-30.17h-23.79l2.64 30.17z"/><path fill="#e0e0e0" d="M390.71 282.52h-1.14l-2.64-30.17h1.14l2.64 30.17z"/><path fill="#f0f0f0" d="M392.86 279.44h18.94l-2.1-24.01h-18.94l2.1 24.01z"/><path fill="#fafafa" d="M394.25 277.47h15.82l-1.76-20.07h-15.82l1.76 20.07z"/><path d="M402.24 266.43a2.74 2.74 0 01-3.89 0 2.74 2.74 0 010-3.89 2.74 2.74 0 013.89 0 2.76 2.76 0 010 3.89z" fill="#ebebeb"/><path d="M401.07 269.8a2 2 0 012.85 0 2 2 0 01-1.42 3.44 2 2 0 01-1.43-3.44z" fill="#f0f0f0"/><path d="M166.46 375.42h23.17l-12.19-99.2a8.84 8.84 0 00-8.53-7.61H67.81l14.82 106.81z" fill="#f5f5f5"/><path d="M93 375.42H69.8l-12.18-99.2a6.59 6.59 0 016.67-7.61h8a8.86 8.86 0 018.54 7.61z" fill="#f0f0f0"/><path d="M101.51 375.3l-4.2-48a4.59 4.59 0 00-4-4.14L91.6 323a6.12 6.12 0 01-5.33-5.55l-.77-8.75a6.14 6.14 0 016.11-6.7H52.89a6.14 6.14 0 00-6.11 6.67l.76 8.75a6.14 6.14 0 005.34 5.58l1.73.22a4.57 4.57 0 014 4.14l4.2 48a6.78 6.78 0 006.75 6.19h38.72a6.77 6.77 0 01-6.77-6.25zM208.07 315.31A14.59 14.59 0 01222.6 302h-33.71a14.58 14.58 0 00-14.53 13.32l-3.33 38h33.71z" fill="#e6e6e6"/><path d="M237.58 302h-15a14.59 14.59 0 00-14.53 13.32l-3.33 38h-80.27l-3.33-38A14.59 14.59 0 00106.59 302h-15a6.14 6.14 0 00-6.11 6.67l.77 8.75A6.12 6.12 0 0091.6 323l1.73.22a4.59 4.59 0 014 4.14l4.19 48a6.78 6.78 0 006.75 6.19h112.67a6.77 6.77 0 006.74-6.19l4.2-48a4.59 4.59 0 014-4.14l1.73-.22a6.12 6.12 0 005.33-5.55l.77-8.75a6.14 6.14 0 00-6.13-6.7z" fill="#f0f0f0"/><g><ellipse cx="250" cy="416.24" rx="193.89" ry="11.32" fill="#f5f5f5"/></g><g><rect x="164.61" y="140.84" width="219.8" height="202.73" rx="4.36" fill="#2C2E43"/><rect x="164.61" y="140.84" width="219.8" height="202.73" rx="4.36" fill="#fff" opacity=".4"/><path d="M167 181.61v156.7a2.86 2.86 0 002.85 2.85h209.29a2.86 2.86 0 002.85-2.85v-156.7z" fill="#fff" opacity=".6"/><rect x="203.57" y="152.11" width="58.61" height="20.56" rx="1.89" fill="#2C2E43"/><path d="M230.42 164.73H225l-1.17 2.59h-1.06l4.43-9.7h1l4.43 9.7h-1.08zm-.37-.83l-2.33-5.21-2.33 5.21zM234.28 157.62h3.95c3.1 0 5.19 2 5.19 4.85s-2.09 4.85-5.19 4.85h-3.95zm3.89 8.82a4 4 0 100-7.93h-2.87v7.93zM245.72 157.62h3.95c3.11 0 5.2 2 5.2 4.85s-2.09 4.85-5.2 4.85h-3.95zm3.9 8.82a4 4 0 100-7.93h-2.87v7.93zM208.76 161.89h8.92v1h-8.92z" fill="#fff"/><path fill="#fff" d="M212.72 157.93h1v8.92h-1zM178.24 153.96h15.77v15.77h-15.77z"/><path d="M194 170.23h-15.76a.51.51 0 01-.5-.5V154a.5.5 0 01.5-.5H194a.5.5 0 01.5.5v15.77a.5.5 0 01-.5.46zm-15.27-1h14.77v-14.77h-14.76z" fill="#2C2E43"/><rect x="203.57" y="191.97" width="162.39" height="20.56" rx="1.89" fill="#2C2E43" opacity=".6"/><g opacity=".6"><path fill="#fff" d="M178.24 195.03h15.77v15.77h-15.77z"/><path d="M194 211.29h-15.76a.5.5 0 01-.5-.5V195a.5.5 0 01.5-.5H194a.5.5 0 01.5.5v15.76a.5.5 0 01-.5.53zm-15.27-1h14.77v-14.76h-14.76z" fill="#2C2E43"/></g><path d="M212.83 199.69h-2.67V199h6.15v.69h-2.67v6.91h-.81zM222 204.57h-4.23l-.91 2H216l3.48-7.6h.79l3.47 7.6h-.84zm-.29-.65l-1.82-4.09-1.89 4.09zM224.28 205.68l.32-.62a3.74 3.74 0 002.51.92c1.42 0 2-.6 2-1.35 0-2.08-4.68-.8-4.68-3.61 0-1.12.87-2.09 2.8-2.09a4.33 4.33 0 012.36.67l-.28.64a3.93 3.93 0 00-2.08-.63c-1.39 0-2 .62-2 1.38 0 2.09 4.68.83 4.68 3.6 0 1.12-.89 2.08-2.83 2.08a4.18 4.18 0 01-2.8-.99zM234.05 203l-1.55 1.57v2h-.81V199h.81v4.59L237 199h.93l-3.3 3.44 3.52 4.16h-1zM241.6 202.8c0-2.42 1.27-3.87 3-3.87s3 1.45 3 3.87-1.28 3.87-3 3.87-3-1.45-3-3.87zm5.27 0c0-2-.92-3.15-2.24-3.15s-2.24 1.12-2.24 3.15.91 3.15 2.24 3.15 2.24-1.12 2.24-3.15zM250.88 199v7.6h-.78v-6.91h-1.8V199zM358.13 207.71h-8.64v-11.39h8.64zm-7.64-1h6.64v-9.39h-6.64z" fill="#fff"/><path fill="#fff" d="M354.655 203.534l5.14-5.254.715.699-5.14 5.254z"/><rect x="204.05" y="220.25" width="162.39" height="20.56" rx="1.89" fill="#2C2E43" opacity=".6"/><g opacity=".6"><path fill="#fff" d="M178.73 223.3h15.77v15.77h-15.77z"/><path d="M194.5 239.57h-15.77a.5.5 0 01-.5-.5V223.3a.5.5 0 01.5-.5h15.77a.51.51 0 01.5.5v15.77a.5.5 0 01-.5.5zm-15.27-1H194V223.8h-14.77z" fill="#2C2E43"/></g><path d="M212.83 228h-2.67v-.7h6.15v.7h-2.67v6.91h-.81zM222 232.84h-4.23l-.91 2H216l3.48-7.61h.79l3.47 7.61h-.84zm-.29-.65l-1.82-4.08-1.89 4.08zM224.28 234l.32-.62a3.69 3.69 0 002.51.93c1.42 0 2-.6 2-1.35 0-2.09-4.68-.8-4.68-3.62 0-1.12.87-2.08 2.8-2.08a4.33 4.33 0 012.36.67l-.28.64a3.93 3.93 0 00-2.08-.63c-1.39 0-2 .62-2 1.38 0 2.09 4.68.83 4.68 3.6 0 1.12-.89 2.07-2.83 2.07a4.13 4.13 0 01-2.8-.99zM234.05 231.3l-1.55 1.58v2h-.81v-7.61h.81v4.6l4.46-4.6h.93l-3.3 3.45 3.52 4.16h-1zM241.6 231.07c0-2.42 1.27-3.86 3-3.86s3 1.44 3 3.86-1.28 3.87-3 3.87-3-1.44-3-3.87zm5.27 0c0-2-.92-3.15-2.24-3.15s-2.24 1.12-2.24 3.15.91 3.15 2.24 3.15 2.24-1.11 2.24-3.15zM254 234.18v.7h-5.33v-.56l3.16-3.09c.86-.85 1-1.36 1-1.88 0-.88-.62-1.43-1.78-1.43a2.56 2.56 0 00-2.07.85l-.56-.48a3.44 3.44 0 012.7-1.08c1.54 0 2.52.78 2.52 2a3.13 3.13 0 01-1.25 2.38l-2.59 2.54zM358.62 236H350v-11.4h8.64zm-7.62-1h6.64v-9.4H351z" fill="#fff"/><path fill="#fff" d="M355.136 231.812l5.14-5.254.715.7-5.14 5.254z"/><rect x="204.54" y="248.52" width="162.39" height="20.56" rx="1.89" fill="#2C2E43" opacity=".6"/><g opacity=".6"><path fill="#fff" d="M179.22 251.58h15.77v15.77h-15.77z"/><path d="M195 267.85h-15.78a.5.5 0 01-.5-.5v-15.77a.5.5 0 01.5-.5H195a.5.5 0 01.5.5v15.77a.51.51 0 01-.5.5zm-15.27-1h14.77v-14.77h-14.78z" fill="#2C2E43"/></g><path d="M212.83 256.24h-2.67v-.69h6.15v.69h-2.67v6.91h-.81zM222 261.12h-4.23l-.92 2H216l3.47-7.6h.8l3.47 7.6h-.84zm-.29-.65l-1.82-4.09-1.89 4.09zM224.28 262.23l.32-.62a3.74 3.74 0 002.51.92c1.42 0 2-.59 2-1.34 0-2.09-4.68-.81-4.68-3.62 0-1.12.86-2.09 2.8-2.09a4.25 4.25 0 012.36.68l-.28.64a3.85 3.85 0 00-2.08-.63c-1.39 0-2 .62-2 1.38 0 2.08 4.68.82 4.68 3.59 0 1.12-.89 2.08-2.83 2.08a4.11 4.11 0 01-2.8-.99zM234.05 259.58l-1.55 1.57v2h-.81v-7.6h.81v4.59l4.46-4.59h.93l-3.3 3.44 3.52 4.16h-1zM241.6 259.35c0-2.42 1.27-3.87 3-3.87s3 1.45 3 3.87-1.28 3.87-3 3.87-3-1.45-3-3.87zm5.27 0c0-2-.92-3.15-2.24-3.15s-2.24 1.12-2.24 3.15.91 3.15 2.24 3.15 2.24-1.12 2.24-3.15zM253.71 261c0 1.27-.92 2.25-2.76 2.25a3.93 3.93 0 01-2.73-1l.38-.62a3.33 3.33 0 002.35.88c1.26 0 2-.59 2-1.53s-.64-1.51-2-1.51h-.55v-.58l2.11-2.64h-3.89v-.69h4.89v.55l-2.15 2.71c1.54.07 2.35.93 2.35 2.18zM359.11 264.26h-8.64v-11.39h8.64zm-7.64-1h6.64v-9.39h-6.64z" fill="#fff"/><path fill="#fff" d="M355.635 260.088l5.14-5.254.714.7-5.14 5.253z"/><rect x="205.03" y="276.8" width="162.39" height="20.56" rx="1.89" fill="#2C2E43" opacity=".6"/><g opacity=".6"><path fill="#fff" d="M179.71 279.86h15.77v15.77h-15.77z"/><path d="M195.47 296.12h-15.76a.5.5 0 01-.5-.5v-15.76a.5.5 0 01.5-.5h15.76a.5.5 0 01.5.5v15.76a.5.5 0 01-.5.5zm-15.26-1H195v-14.76h-14.79z" fill="#2C2E43"/></g><path d="M212.83 284.52h-2.67v-.7h6.15v.7h-2.67v6.91h-.81zM222 289.4h-4.23l-.92 2H216l3.47-7.61h.8l3.47 7.61h-.84zm-.29-.65l-1.82-4.09-1.89 4.09zM224.28 290.5l.32-.61a3.74 3.74 0 002.51.92c1.42 0 2-.6 2-1.35 0-2.08-4.68-.8-4.68-3.62 0-1.11.86-2.08 2.8-2.08a4.33 4.33 0 012.36.67l-.28.64a3.93 3.93 0 00-2.08-.63c-1.39 0-2 .62-2 1.38 0 2.09 4.68.83 4.68 3.6 0 1.12-.89 2.07-2.83 2.07a4.11 4.11 0 01-2.8-.99zM234.05 287.85l-1.55 1.58v2h-.81v-7.61h.81v4.6l4.46-4.6h.93l-3.3 3.45 3.52 4.16h-1zM241.6 287.63c0-2.43 1.27-3.87 3-3.87s3 1.44 3 3.87-1.28 3.86-3 3.86-3-1.44-3-3.86zm5.27 0c0-2-.92-3.15-2.24-3.15s-2.24 1.11-2.24 3.15.91 3.15 2.24 3.15 2.24-1.12 2.24-3.15zM255.26 289.43h-1.52v2H253v-2h-4.29v-.56l4-5.05h.87l-3.89 4.91H253V287h.76v1.76h1.52zM359.6 292.54H351v-11.39h8.65zm-7.65-1h6.65v-9.39H352z" fill="#fff"/><path fill="#fff" d="M356.116 288.37l5.14-5.253.715.7-5.14 5.253z"/><rect x="205.52" y="305.08" width="162.39" height="20.56" rx="1.89" fill="#2C2E43" opacity=".6"/><g opacity=".6"><path fill="#fff" d="M180.19 308.13h15.77v15.77h-15.77z"/><path d="M196 324.4h-15.81a.5.5 0 01-.5-.5v-15.77a.51.51 0 01.5-.5H196a.5.5 0 01.5.5v15.77a.5.5 0 01-.5.5zm-15.27-1h14.77v-14.77h-14.81z" fill="#2C2E43"/></g><path d="M212.83 312.79h-2.67v-.69h6.15v.69h-2.67v6.92h-.81zM222 317.67h-4.23l-.92 2H216l3.47-7.61h.8l3.47 7.61h-.84zm-.29-.65l-1.82-4.08L218 317zM224.28 318.78l.32-.62a3.74 3.74 0 002.51.93c1.42 0 2-.6 2-1.35 0-2.09-4.68-.81-4.68-3.62 0-1.12.86-2.08 2.8-2.08a4.33 4.33 0 012.36.67l-.28.64a3.93 3.93 0 00-2.08-.63c-1.39 0-2 .62-2 1.38 0 2.09 4.68.82 4.68 3.6 0 1.11-.89 2.07-2.83 2.07a4.11 4.11 0 01-2.8-.99zM234.05 316.13l-1.55 1.58v2h-.81v-7.61h.81v4.6l4.46-4.6h.93l-3.3 3.44 3.52 4.17h-1zM241.6 315.9c0-2.42 1.27-3.86 3-3.86s3 1.44 3 3.86-1.28 3.87-3 3.87-3-1.44-3-3.87zm5.27 0c0-2-.92-3.15-2.24-3.15s-2.24 1.12-2.24 3.15.91 3.15 2.24 3.15 2.24-1.12 2.24-3.15zM254 317.47c0 1.29-.9 2.3-2.76 2.3a3.9 3.9 0 01-2.72-1l.38-.62a3.28 3.28 0 002.33.88c1.3 0 2-.63 2-1.55s-.61-1.59-2.54-1.59H249l.39-3.81h4.16v.69h-3.48l-.26 2.43h1c2.27.02 3.19.92 3.19 2.27zM360.09 320.82h-8.65v-11.4h8.65zm-7.65-1h6.65v-9.4h-6.65z" fill="#fff"/><path fill="#fff" d="M356.597 316.65l5.14-5.255.715.7-5.14 5.254z"/><rect x="276.36" y="152.26" width="88.88" height="18.99" rx="9.5" fill="#fff"/><path d="M352.21 164.15a3.37 3.37 0 112.38-5.75 3.37 3.37 0 01-2.38 5.75zm0-5.73a2.37 2.37 0 00-1.68 4 2.44 2.44 0 003.35 0 2.37 2.37 0 00-1.67-4z" fill="#2C2E43"/><path d="M358.29 167.37a.51.51 0 01-.36-.15l-4.05-4.06a.48.48 0 010-.7.5.5 0 01.71 0l4.05 4a.5.5 0 010 .71.5.5 0 01-.35.2z" fill="#2C2E43"/></g><g><path d="M391.94 392.64s-4.95-10.81.71-21.46 7.3-13.16 3.69-15.35-5.26 8.53-5.26 8.53a24.06 24.06 0 01-.53-15.07c2.51-7.71 4.08-20.26.65-21.61s-.65 15.66-3.63 21.46a50.45 50.45 0 01-2.91-12.65c-.41-6.19.24-16.07-2.47-18.61s-4.44-.78-1.78 12.88a143 143 0 012.64 24.77s-5.88-17.92-9.82-18.45-3.94 5.28-.57 10.32 9.89 14.05 11 18.69c0 0-6.45-13.49-12.26-9.35s5.02 12.26 9.85 15.26 8.2 21.39 8.2 21.39z" fill="#2C2E43"/><path d="M391.94 392.64s-4.95-10.81.71-21.46 7.3-13.16 3.69-15.35-5.26 8.53-5.26 8.53a24.06 24.06 0 01-.53-15.07c2.51-7.71 4.08-20.26.65-21.61s-.65 15.66-3.63 21.46a50.45 50.45 0 01-2.91-12.65c-.41-6.19.24-16.07-2.47-18.61s-4.44-.78-1.78 12.88a143 143 0 012.64 24.77s-5.88-17.92-9.82-18.45-3.94 5.28-.57 10.32 9.89 14.05 11 18.69c0 0-6.45-13.49-12.26-9.35s5.02 12.26 9.85 15.26 8.2 21.39 8.2 21.39z" style="isolation:isolate" opacity=".2"/><path d="M388 397.07s4.82-10.88-1-21.45-7.46-13.05-3.88-15.29 5.37 8.45 5.37 8.45a24.09 24.09 0 00.35-15.08c-2.61-7.67-4.33-20.2-.92-21.59s.84 15.64 3.89 21.4a50.14 50.14 0 002.76-12.69c.33-6.2-.43-16.07 2.25-18.65s4.43-.84 1.93 12.86a143.56 143.56 0 00-2.34 24.8s5.66-18 9.6-18.59 4 5.22.69 10.31-9.65 14.19-10.7 18.85c0 0 6.29-13.58 12.14-9.54s-4.91 12.36-9.71 15.37-7.94 21.52-7.94 21.52z" fill="#2C2E43"/><path fill="#263238" d="M410.28 389.31h-39.84l3.22 28.51h33.39l3.23-28.51z"/></g><g><path d="M99.56 392.73l4.83 2.84a92.41 92.41 0 017.34-8.7c1.4-1.48 2.87-3.12 4.4-4.88 3.06-3.51 6.37-7.52 9.84-11.83l3.11-3.89c12.09-15.21 25.16-33.09 30-45.18 1.52-3.76 2.26-6.95 1.93-9.34-1-7.22-3.8-18.09-7-28.59-4.88-16-10.37-31.26-10.37-31.26l-13.49 22.85s4.14 9.87 7.91 20.38c3.71 10.32 7.06 21.27 5.82 24.12-.12.28-.27.61-.44 1-2.2 4.59-8.44 15.1-15.44 26.75l-2.15 3.53c-3.78 6.2-7.71 12.57-11.35 18.42a1968.594 1968.594 0 01-14.94 23.78z" fill="#b97964"/><path d="M129.35 366.26c-6.38 8-12.51 15.3-17.07 20.6a156.4 156.4 0 01-1.83-11.33c5.27-8.46 11.72-18.9 17.58-28.57a110.64 110.64 0 001.32 19.3z" style="isolation:isolate" opacity=".2"/><path d="M105.28 300.14c1.67 11.39 4 21.71 5.6 27.86.93 3.69 1.56 5.87 1.56 5.87a308.47 308.47 0 002.06 35c.51 4.58 1.06 9 1.63 13.07 2.1 15.14 4.31 26 4.31 26l5.75-.75-.19-37.04-.12-19.66-.16-26.75-.06-4.66-.28-20.34-.41-30-20-9c-2.71 11.4-1.71 26.68.31 40.4z" fill="#b97964"/><path d="M158.8 300.32c-5.11 3.53-12 5.65-16.73 6.79-1.09-3.73-2.5-7.92-4-12-3.77-10.51-7.91-20.38-7.91-20.38l13.49-22.85s5.49 15.21 10.37 31.26c1.82 5.86 3.48 11.8 4.78 17.18zM125.52 311.32a185 185 0 01-18.59-1.32c-.58-3.13-1.15-6.44-1.65-9.85-2-13.72-3-29-.34-40.4l20 9 .41 30z" style="isolation:isolate" opacity=".2"/><path d="M159.76 298.33c-12.51 7.35-49.3 10.47-49.3 10.47l-6-16.92.65 16.74h-1.78s-13.45-45.5 4.42-75.32l32-2.47 3.5 16.48s8.99 23.62 16.51 51.02z" fill="#263238"/><path d="M136.3 415.36a8.85 8.85 0 00-3.07-1.15s-3.53-2.63-6.34-11.67l-4.2-.48a3.49 3.49 0 00-3.49 2 1.9 1.9 0 00-.18.57 22.47 22.47 0 000 3.07 83.08 83.08 0 001.38 10.16l.73-.1-.61-6.42c-.2-2.18 1.82.12 2.62 2.39s2.17 4.6 6.93 4c5.55-.67 7.82-1.22 6.23-2.37z" fill="#2e353a"/><path d="M118.15 141.87s8-4.44 14.51-1.13c3 1.52 4.07 5.41 4.7 8.44.89 4.24 1 8.58 1.63 12.86a16.3 16.3 0 001.53 5.21c1.11 2.17 3.38 4.34 2.93 7-.4 2.35-2.8 3.75-4.89 4.39-5.55 1.71-11.83.76-17.56 1.13-4.62.29-9.07 1.84-13.69 2a7 7 0 01-3.82-.76c-4.45-2.66-2.51-9.5-1.07-13.3 1.22-3.21.32-6.53.72-9.9a31.47 31.47 0 012.08-8.67c2.31-5.53 6.95-8.43 12.93-7.27z" fill="#263238"/><path d="M125.73 399.33s1.5 4.09 3.5 8.59a19.58 19.58 0 004 6.29s-3.47 1.13-5.35-1-5.08-10-8.68-9.14a8.53 8.53 0 01.81-1.83c.53-.94 5.72-2.91 5.72-2.91z" fill="#b97964"/><path d="M101.07 411.8a9.35 9.35 0 00-1.18-3.06s-.37-4.39 4.54-12.48l-2.43-3.47a3.52 3.52 0 00-3.79-1.31 2.2 2.2 0 00-.54.25 23.24 23.24 0 00-2.3 2 83.36 83.36 0 00-6.7 7.78l.56.48 4.4-4.72c1.5-1.59 1.12 1.45 0 3.55s-2 4.67 1.57 7.87c4.14 3.73 6.05 5.07 5.87 3.11z" fill="#2e353a"/><path d="M106.06 393.26s-2.06 3.84-4.06 8.32a19.44 19.44 0 00-2.06 7.16s-3.15-1.85-2.76-4.7 4.16-10.46 1.09-12.56a8.63 8.63 0 011.91-.61c.97-.18 5.88 2.39 5.88 2.39z" fill="#b97964"/><path fill="#263238" d="M107.44 230.03l-.18 4.83 33.07-1.29.21-5.71-33.1 2.17z"/><path style="isolation:isolate" fill="#fff" opacity=".2" d="M107.44 230.03l-.18 4.83 33.07-1.29.21-5.71-33.1 2.17z"/><path fill="#263238" d="M116.96 228.437l1.64-.022.111 8.35-1.64.021zM137.169 227l1.64-.022.11 8.35-1.64.021z"/><path d="M132.39 228.73a1.89 1.89 0 00-1.47-.51l-3.91.3a1.92 1.92 0 00-1.78 1.92v2.5a1.94 1.94 0 001.92 1.95h.17l3.91-.31a1.93 1.93 0 001.78-1.92v-2.49a1.94 1.94 0 00-.62-1.44zm-1.26 4.84l-3.91.32a.92.92 0 01-.71-.25.89.89 0 01-.3-.7v-2.49a.93.93 0 01.86-.93l3.91-.31h.08a.91.91 0 01.63.25.92.92 0 01.3.7v.38a.41.41 0 00-.16 0l-1.09.07a.67.67 0 00-.61.71.65.65 0 00.7.61l1.1-.07h.05v.82a.93.93 0 01-.85.89z" fill="#fff"/><path d="M98.45 187.74c.71 1.81.42 2.5 1 4.12s1.24 3.37 1.78 4.91c1.28 3.64 2.29 6.79 3.09 9.58 2.47 8.62 2.89 25.2 2.89 25.2l33.27-2.33c2.31-30.84-3-46.08-3-46.08l-2.18-.16c-2.54-.18-6.89-.44-10.87-.41a109.27 109.27 0 00-14 1.33c-3.12.47-8.16 1.29-11.98 3.84z" fill="#2C2E43"/><path d="M130.87 210s-12.68 15-23.68 20.6c-.14-3.64-.75-16.86-2.86-24.25-.57-2-1.25-4.17-2.06-6.57l-.81-6.32s4.37 7 5 13.08c0 0 14.64-1 23.35-6.09z" style="isolation:isolate" opacity=".2"/><path d="M123.42 189.13c-7.8-1.41-10-4.88-10-4.88 5.22-4.45 1.5-12.82 1.5-12.82l9.36 2.25a28.9 28.9 0 00-.57 4c-.36 5.74 2.23 5.93 2.23 5.93 1.51 3.15-2.52 5.52-2.52 5.52z" fill="#eec1bb"/><path d="M124.29 173.68a28.9 28.9 0 00-.57 4c-4.5-1.28-8.79-6.21-8.79-6.21z" style="isolation:isolate" opacity=".2"/><path d="M123.6 146.87c8.21.74 10.46 5.37 10.3 13.89-.2 10.64-3.22 17.94-13.28 14.76-13.62-4.32-10.62-29.88 2.98-28.65z" fill="#eec1bb"/><path d="M128.63 159.82a17.42 17.42 0 002.09 3.62 2.29 2.29 0 01-2.25.74z" fill="#d4827d"/><path d="M123.67 158.7c0 .67-.45 1.2-.9 1.17s-.78-.61-.73-1.28.44-1.2.89-1.17.78.58.74 1.28z" fill="#263238"/><path d="M122.74 157.44l1.51-.48s-.81 1.19-1.51.48zM132.08 159.11c0 .68-.45 1.2-.9 1.17s-.78-.6-.73-1.27.45-1.2.9-1.17.78.6.73 1.27z" fill="#263238"/><path d="M131.16 157.86l1.5-.48s-.81 1.19-1.5.48zM120.42 154.3a.35.35 0 01-.25-.1.36.36 0 010-.51 4.57 4.57 0 014-1 .36.36 0 01.28.43.36.36 0 01-.43.27 4 4 0 00-3.34.82.33.33 0 01-.26.09zM133.31 154.54a.4.4 0 01-.23-.08 3.47 3.47 0 00-2.89-.9.37.37 0 01-.44-.26.36.36 0 01.25-.44 4.16 4.16 0 013.53 1 .36.36 0 01.06.51.39.39 0 01-.28.17z" fill="#263238"/><path d="M113.38 159.9s4.45-6.4 4.33-11.66c0 0 16.88-5.19 16.19 11.4 0 0 2.91-14.52-11.18-16.12s-15.88 19.06-9.14 25.87c0 0-2.95-5.48-.2-9.49z" fill="#263238"/><path d="M114.57 161.75a3.63 3.63 0 00-3.59-3.64c-2.57 0-4.25 5.17 2 7 .86.26 1.45-.59 1.59-3.36z" fill="#eec1bb"/><path d="M127.73 168a4.58 4.58 0 01-4.57-3.16.35.35 0 01.24-.44.36.36 0 01.44.24 3.91 3.91 0 004 2.65.36.36 0 01.38.32.37.37 0 01-.33.39z" fill="#263238"/><path d="M115.42 180.28l7.32 5.61 2.17-6 3.56 2.77 3.23.84a1.84 1.84 0 011.2 2.56c-1.69 3.62-5.46 10.87-8.53 11s-13.5-7-18.05-10.2a1.18 1.18 0 01.46-2.11l5.77-1.15z" fill="#2C2E43"/><path d="M115.42 180.28l7.32 5.61 2.17-6 3.56 2.77 3.23.84a1.84 1.84 0 011.2 2.56c-1.69 3.62-5.46 10.87-8.53 11s-13.5-7-18.05-10.2a1.18 1.18 0 01.46-2.11l5.77-1.15z" fill="#fff" opacity=".6"/><path fill="#fff" opacity=".3" d="M112.55 183.59l4.85 6.94 5.34-3.92 5.17 2.52.56-6.51-3.56-2.77-2.17 6.04-7.32-5.61-2.87 3.31z"/><path fill="#eec1bb" d="M122.97 205.56l2.44 3.01-16.11 5.89.23-5.17 13.44-3.73z"/><path d="M132.66 158.47a.36.36 0 01-.35-.31c-.45-3.54-1.86-6.16-4.2-7.82-4.27-3-10.26-1.77-10.32-1.76a.35.35 0 01-.42-.27.35.35 0 01.27-.42c.26 0 6.35-1.32 10.87 1.87 2.51 1.77 4 4.57 4.51 8.31a.36.36 0 01-.31.39z" fill="#263238"/><path d="M101.36 186.28c-6-.2-22.48 25.14-16.83 34.15s29.07-5 29.07-5l-2-7.59s-14.44 2.89-15.22 1.48 5-8.78 5-8.78 2.73-1.7 1.9-7.15-1.92-7.11-1.92-7.11z" fill="#2C2E43"/><path fill="#2C2E43" d="M112.69 217.29l1.88-.07-1.07-10.68-2.54.02 1.73 10.73z"/><path fill="#eec1bb" d="M199.06 171.41l3.19 2.19-13.81 10.2-1.23-5.03 11.85-7.36z"/><path d="M210.65 168.13c-.79-.89-5.47-4.12-6.47-3.56s-4.62 6.38-5.74 7c-.13.07 2.09 4.1 2.09 4.1a14 14 0 003-.09c.85-.23 7.92-6.58 7.12-7.45z" fill="#eec1bb"/><path d="M137.51 183.14c18.15 1.24 29.75 1.83 36.35-.57s18.75-7.84 18.75-7.84l3.49 6.75s-21.63 11.29-25.49 11.71-31.61 3.86-31.61 3.86z" fill="#2C2E43"/><path d="M126.75 211.38a.8.8 0 00.72 1l9.08 1a1.06 1.06 0 001.13-.8l4-17.71a.92.92 0 00-.71-1.13l-9.09-1a1.19 1.19 0 00-1.14.93z" fill="#263238"/><path d="M131.75 193.66l-4 17.88a.7.7 0 00.62.94l7.71.84c.51.05 1.49-.13 1.6-.63l4-17.94c.12-.51-.72-1-1.24-1.07l-7.7-.84a1 1 0 00-.99.82z" fill="#fff" opacity=".5"/><path d="M135 205.69c-.51-1.09-4.09-5.5-5.2-5.24s-6.23 4.82-7.48 5.09a45.77 45.77 0 00.85 4.53 13.9 13.9 0 002.89.75c.94.03 9.47-4.04 8.94-5.13z" fill="#eec1bb"/><path fill="#fff" opacity=".6" d="M112.69 217.29l1.88-.07-1.07-10.68-2.54.02 1.73 10.73z"/><path fill="#2C2E43" d="M196.62 183.59l1.62-.97-6.05-8.87-2.22 1.24 6.65 8.6z"/><path fill="#fff" opacity=".6" d="M196.62 183.59l1.62-.97-6.05-8.87-2.22 1.24 6.65 8.6z"/></g></svg>