<svg id="Layer_1" height="512" viewBox="0 0 64 64" width="512" xmlns="http://www.w3.org/2000/svg" data-name="Layer 1"><path d="m55.21 12.26v-.06a3.3 3.3 0 0 0 -2-4.2l-2.65-.92a3.31 3.31 0 0 0 -4.2 2l-11.42 32.8c-.06.16 1.27 7.42 1.27 7.42-1 2.86-3.43 4-4.26 3.84-.33-.06 0-1.4.07-1.8.29-2.32-1.52-3.6-3.74-.09-.34.54-1.18 1.8-1.54 1.72s-.1-1.3 0-1.77c.34-2.19.07-5.09-5.35-.55-1.94 1.62-4.56 3.89-6.09 3.43-.52-.16-1.54-1.38-1.22-1.6 2.81-1.92 6.83-7.48 6.26-10.48a2.39 2.39 0 0 0 -1.95-2 4.17 4.17 0 0 0 -4.07 1.42c-2.32 2.58-3.13 7.51-2.69 10.25a41.82 41.82 0 0 1 -6.09 2.95 1 1 0 1 0 .69 1.88 42.08 42.08 0 0 0 6-2.88 4.06 4.06 0 0 0 2.46 2.38c2.57.77 5.56-1.77 8-3.82.67-.57 1.52-1.29 2.09-1.68 0 .19-.19 3.07.53 3.88a1.79 1.79 0 0 0 1.29.62c1.42.07 2.4-1.32 3.3-2.55a2.92 2.92 0 0 0 .59 2.14 1.88 1.88 0 0 0 1.52.59 7.33 7.33 0 0 0 6.07-5.18s5.68-4.88 5.74-5l10.68-30.71c.12-.44 2 .28 1.81 1.08l-2.75 8.3a1 1 0 0 0 1.9.63l2.74-8.3c.8-2.26-1.8-3.67-2.99-3.74zm-39.42 30.57c1.43-1.51 2.49-1 2.58-.45.31 1.64-2.37 6-4.86 8-.07-2.32.69-5.87 2.28-7.55zm34.11-33.83 2.64.92a1.3 1.3 0 0 1 .8 1.66l-.22.62-5.12-1.82.22-.62a1.31 1.31 0 0 1 1.68-.76zm-2.53 3.31 5.1 1.78-10.21 29.28-5.1-1.77zm-9.46 35.23-.72-3.81 3.7 1.27z"/></svg>