<?xml version="1.0"?>
<svg xmlns="http://www.w3.org/2000/svg" xmlns:xlink="http://www.w3.org/1999/xlink" xmlns:svgjs="http://svgjs.com/svgjs" version="1.1" width="512" height="512" x="0" y="0" viewBox="0 0 508.648 508.648" style="enable-background:new 0 0 512 512" xml:space="preserve" class=""><g><g xmlns="http://www.w3.org/2000/svg"><path d="m144.562 200.02c0-4.143-3.358-7.5-7.5-7.5h-53.94c-4.142 0-7.5 3.357-7.5 7.5v53.939c0 4.143 3.358 7.5 7.5 7.5h53.94c4.142 0 7.5-3.357 7.5-7.5zm-15 46.439h-38.94v-38.939h38.94z" fill="#2b4365" data-original="#000000" style="" class=""/><path d="m240.717 200.02c0-4.143-3.358-7.5-7.5-7.5h-53.94c-4.142 0-7.5 3.357-7.5 7.5v53.939c0 4.143 3.358 7.5 7.5 7.5h53.94c4.142 0 7.5-3.357 7.5-7.5zm-15 46.439h-38.94v-38.939h38.94z" fill="#2b4365" data-original="#000000" style="" class=""/><path d="m336.871 200.02c0-4.143-3.358-7.5-7.5-7.5h-53.94c-4.143 0-7.5 3.357-7.5 7.5v53.939c0 4.143 3.357 7.5 7.5 7.5h53.94c4.142 0 7.5-3.357 7.5-7.5zm-15 46.439h-38.94v-38.939h38.94z" fill="#2b4365" data-original="#000000" style="" class=""/><path d="m371.586 261.459h53.94c4.143 0 7.5-3.357 7.5-7.5v-53.939c0-4.143-3.357-7.5-7.5-7.5h-53.94c-4.143 0-7.5 3.357-7.5 7.5v53.939c0 4.143 3.357 7.5 7.5 7.5zm7.5-53.939h38.94v38.939h-38.94z" fill="#2b4365" data-original="#000000" style="" class=""/><path d="m144.562 297.636c0-4.143-3.358-7.5-7.5-7.5h-53.94c-4.142 0-7.5 3.357-7.5 7.5v53.939c0 4.143 3.358 7.5 7.5 7.5h53.94c4.142 0 7.5-3.357 7.5-7.5zm-15 46.439h-38.94v-38.939h38.94z" fill="#2b4365" data-original="#000000" style="" class=""/><path d="m240.717 297.636c0-4.143-3.358-7.5-7.5-7.5h-53.94c-4.142 0-7.5 3.357-7.5 7.5v53.939c0 4.143 3.358 7.5 7.5 7.5h53.94c4.142 0 7.5-3.357 7.5-7.5zm-15 46.439h-38.94v-38.939h38.94z" fill="#2b4365" data-original="#000000" style="" class=""/><path d="m336.871 297.636c0-4.143-3.358-7.5-7.5-7.5h-53.94c-4.143 0-7.5 3.357-7.5 7.5v53.939c0 4.143 3.357 7.5 7.5 7.5h53.94c4.142 0 7.5-3.357 7.5-7.5zm-15 46.439h-38.94v-38.939h38.94z" fill="#2b4365" data-original="#000000" style="" class=""/><path d="m364.086 351.575c0 4.143 3.357 7.5 7.5 7.5h53.94c4.143 0 7.5-3.357 7.5-7.5v-53.939c0-4.143-3.357-7.5-7.5-7.5h-53.94c-4.143 0-7.5 3.357-7.5 7.5zm15-46.439h38.94v38.939h-38.94z" fill="#2b4365" data-original="#000000" style="" class=""/><path d="m137.062 387.752h-53.94c-4.142 0-7.5 3.357-7.5 7.5v53.939c0 4.143 3.358 7.5 7.5 7.5h53.94c4.142 0 7.5-3.357 7.5-7.5v-53.939c0-4.143-3.358-7.5-7.5-7.5zm-7.5 53.939h-38.94v-38.939h38.94z" fill="#2b4365" data-original="#000000" style="" class=""/><path d="m233.217 387.752h-53.94c-4.142 0-7.5 3.357-7.5 7.5v53.939c0 4.143 3.358 7.5 7.5 7.5h53.94c4.142 0 7.5-3.357 7.5-7.5v-53.939c0-4.143-3.358-7.5-7.5-7.5zm-7.5 53.939h-38.94v-38.939h38.94z" fill="#2b4365" data-original="#000000" style="" class=""/><path d="m329.371 387.752h-53.94c-4.143 0-7.5 3.357-7.5 7.5v53.939c0 4.143 3.357 7.5 7.5 7.5h53.94c4.142 0 7.5-3.357 7.5-7.5v-53.939c0-4.143-3.357-7.5-7.5-7.5zm-7.5 53.939h-38.94v-38.939h38.94z" fill="#2b4365" data-original="#000000" style="" class=""/><path d="m364.086 449.191c0 4.143 3.357 7.5 7.5 7.5h53.94c4.143 0 7.5-3.357 7.5-7.5v-53.939c0-4.143-3.357-7.5-7.5-7.5h-53.94c-4.143 0-7.5 3.357-7.5 7.5zm15-46.439h38.94v38.939h-38.94z" fill="#2b4365" data-original="#000000" style="" class=""/><path d="m464.959 55.67h-9.251v-28.693c0-14.875-12.102-26.977-26.977-26.977s-26.977 12.102-26.977 26.977v28.693h-33.251v-28.693c.001-14.875-12.101-26.977-26.976-26.977s-26.977 12.102-26.977 26.977v28.693h-33.25v-28.693c.001-14.875-12.101-26.977-26.976-26.977s-26.977 12.102-26.977 26.977v28.693h-33.251v-28.693c.001-14.875-12.101-26.977-26.976-26.977s-26.977 12.102-26.977 26.977v28.693h-33.251v-28.693c.001-14.875-12.1-26.977-26.975-26.977s-26.977 12.102-26.977 26.977v28.693h-9.251c-17.021 0-30.87 13.849-30.87 30.87v391.238c0 17.022 13.848 30.87 30.87 30.87h287.315c4.143 0 7.5-3.358 7.5-7.5 0-4.143-3.357-7.5-7.5-7.5h-287.315c-8.75 0-15.87-7.119-15.87-15.87v-320.825h95.742c4.142 0 7.5-3.357 7.5-7.5s-3.358-7.5-7.5-7.5h-95.742v-55.413c0-8.751 7.119-15.87 15.87-15.87h9.251v11.06c0 14.875 12.102 26.977 26.977 26.977s26.977-12.102 26.977-26.977v-11.06h33.251v11.06c0 14.875 12.102 26.977 26.977 26.977s26.977-12.102 26.977-26.977v-11.06h33.251v11.06c0 14.875 12.102 26.977 26.977 26.977s26.977-12.102 26.977-26.977v-11.06h33.25v11.06c0 14.875 12.102 26.977 26.977 26.977s26.977-12.102 26.977-26.977v-11.06h33.251v11.06c0 14.875 12.102 26.977 26.977 26.977s26.977-12.102 26.977-26.977v-11.06h9.251c8.751 0 15.87 7.119 15.87 15.87v55.413h-327.272c-4.142 0-7.5 3.357-7.5 7.5s3.358 7.5 7.5 7.5h327.268v320.825c0 8.751-7.119 15.87-15.87 15.87h-103.956c-4.143 0-7.5 3.357-7.5 7.5 0 4.142 3.357 7.5 7.5 7.5h103.955c17.021 0 30.87-13.849 30.87-30.87v-391.238c0-17.021-13.849-30.87-30.87-30.87zm-373.066 26.06c0 6.604-5.372 11.977-11.977 11.977-6.604 0-11.977-5.373-11.977-11.977v-54.753c.001-6.604 5.374-11.977 11.978-11.977s11.977 5.373 11.977 11.977v54.753zm87.204 0c0 6.604-5.373 11.977-11.977 11.977s-11.977-5.373-11.977-11.977v-54.753c0-6.604 5.373-11.977 11.977-11.977s11.977 5.373 11.977 11.977zm87.204 0c0 6.604-5.373 11.977-11.977 11.977s-11.977-5.373-11.977-11.977v-54.753c0-6.604 5.373-11.977 11.977-11.977s11.977 5.373 11.977 11.977zm87.203 0c0 6.604-5.373 11.977-11.977 11.977-6.603 0-11.977-5.373-11.977-11.977v-54.753c0-6.604 5.373-11.977 11.977-11.977s11.977 5.373 11.977 11.977zm87.204 0c0 6.604-5.373 11.977-11.977 11.977-6.603 0-11.977-5.373-11.977-11.977v-54.753c0-6.604 5.373-11.977 11.977-11.977s11.977 5.373 11.977 11.977z" fill="#2b4365" data-original="#000000" style="" class=""/></g></g></svg>
