<?xml version="1.0"?>
<svg xmlns="http://www.w3.org/2000/svg" xmlns:xlink="http://www.w3.org/1999/xlink" xmlns:svgjs="http://svgjs.com/svgjs" version="1.1" width="512" height="512" x="0" y="0" viewBox="0 0 64 64" style="enable-background:new 0 0 512 512" xml:space="preserve" class=""><g><g xmlns="http://www.w3.org/2000/svg" id="Dashboard"><path d="M59,34H37a3.0033,3.0033,0,0,0-3,3V59a3.0033,3.0033,0,0,0,3,3H59a3.0033,3.0033,0,0,0,3-3V37A3.0033,3.0033,0,0,0,59,34Zm1,25a1.0006,1.0006,0,0,1-1,1H37a1.0006,1.0006,0,0,1-1-1V37a1.0006,1.0006,0,0,1,1-1H59a1.0006,1.0006,0,0,1,1,1Z" fill="#2b4365" data-original="#000000" style="" class=""/><path d="M27,34H5a3.0033,3.0033,0,0,0-3,3V59a3.0033,3.0033,0,0,0,3,3H27a3.0033,3.0033,0,0,0,3-3V37A3.0033,3.0033,0,0,0,27,34Zm1,25a1.0006,1.0006,0,0,1-1,1H5a1.0006,1.0006,0,0,1-1-1V37a1.0006,1.0006,0,0,1,1-1H27a1.0006,1.0006,0,0,1,1,1Z" fill="#2b4365" data-original="#000000" style="" class=""/><path d="M59,2H37a3.0033,3.0033,0,0,0-3,3V27a3.0033,3.0033,0,0,0,3,3H59a3.0033,3.0033,0,0,0,3-3V5A3.0033,3.0033,0,0,0,59,2Zm1,25a1.0006,1.0006,0,0,1-1,1H37a1.0006,1.0006,0,0,1-1-1V5a1.0006,1.0006,0,0,1,1-1H59a1.0006,1.0006,0,0,1,1,1Z" fill="#2b4365" data-original="#000000" style="" class=""/><path d="M27,2H5A3.0033,3.0033,0,0,0,2,5V27a3.0033,3.0033,0,0,0,3,3H27a3.0033,3.0033,0,0,0,3-3V5A3.0033,3.0033,0,0,0,27,2Zm1,25a1.0006,1.0006,0,0,1-1,1H5a1.0006,1.0006,0,0,1-1-1V5A1.0006,1.0006,0,0,1,5,4H27a1.0006,1.0006,0,0,1,1,1Z" fill="#2b4365" data-original="#000000" style="" class=""/></g></g></svg>
