<?xml version="1.0"?>
<svg xmlns="http://www.w3.org/2000/svg" xmlns:xlink="http://www.w3.org/1999/xlink" xmlns:svgjs="http://svgjs.com/svgjs" version="1.1" width="512" height="512" x="0" y="0" viewBox="0 0 512 512" style="enable-background:new 0 0 512 512" xml:space="preserve"><g><g xmlns="http://www.w3.org/2000/svg"><path d="m141.388 43.676c-1.864-2.701-5.266-3.873-8.404-2.898-3.133.977-5.268 3.878-5.268 7.16v42.166c0 4.143 3.357 7.5 7.5 7.5s7.5-3.357 7.5-7.5v-18.108l14.84 21.489c2.083 3.013 5.735 4.331 9.081 3.286 3.451-1.077 5.682-4.254 5.682-8.164l-.395-40.821c-.04-4.117-3.39-7.428-7.498-7.428-.024 0-.05 0-.074 0-4.143.04-7.468 3.431-7.428 7.572l.18 18.503z" fill="#2b4365" data-original="#000000" style=""/><path d="m114.229 90.104v-42.246c0-4.143-3.357-7.5-7.5-7.5s-7.5 3.357-7.5 7.5v42.245c0 4.143 3.357 7.5 7.5 7.5s7.5-3.357 7.5-7.499z" fill="#2b4365" data-original="#000000" style=""/><path d="m300.878 40.358c-4.143 0-7.5 3.357-7.5 7.5v42.245c0 4.143 3.357 7.5 7.5 7.5s7.5-3.357 7.5-7.5v-42.245c0-4.142-3.357-7.5-7.5-7.5z" fill="#2b4365" data-original="#000000" style=""/><path d="m405.271 55.552c4.143 0 7.5-3.357 7.5-7.5s-3.357-7.5-7.5-7.5h-17.638c-4.143 0-7.5 3.357-7.5 7.5v41.858c0 4.143 3.357 7.5 7.5 7.5h17.638c4.143 0 7.5-3.357 7.5-7.5s-3.357-7.5-7.5-7.5h-10.138v-5.929h8.837c4.143 0 7.5-3.357 7.5-7.5s-3.357-7.5-7.5-7.5h-8.837v-5.93h10.138z" fill="#2b4365" data-original="#000000" style=""/><path d="m349.073 55.358c2.73 0 5.362.803 7.611 2.322 3.433 2.317 8.095 1.416 10.413-2.017s1.416-8.095-2.017-10.413c-4.738-3.201-10.273-4.893-16.008-4.893-15.783 0-28.623 12.84-28.623 28.623 0 15.782 12.84 28.622 28.623 28.622 6.373 0 12.106-2.107 16.578-6.092.88-.783 1.713-1.643 2.478-2.554 2.66-3.175 2.243-7.905-.932-10.566-3.177-2.66-7.905-2.241-10.566.932-.296.354-.616.685-.955.986-1.708 1.522-3.93 2.294-6.603 2.294-7.512 0-13.623-6.11-13.623-13.622s6.113-13.622 13.624-13.622z" fill="#2b4365" data-original="#000000" style=""/><path d="m201.627 97.604h.056c3.596-.024 6.789-2.327 7.964-5.782l13.794-41.521c1.307-3.931-.821-8.176-4.753-9.481-3.928-1.306-8.176.821-9.481 4.753l-7.715 23.222-8.121-23.395c-1.358-3.914-5.634-5.988-9.544-4.626-3.913 1.358-5.984 5.631-4.626 9.544l14.461 41.661c1.195 3.371 4.392 5.625 7.965 5.625z" fill="#2b4365" data-original="#000000" style=""/><path d="m281.213 68.981c0-15.783-12.84-28.623-28.622-28.623s-28.622 12.84-28.622 28.623c0 15.782 12.84 28.622 28.622 28.622s28.622-12.839 28.622-28.622zm-42.244 0c0-7.512 6.11-13.623 13.622-13.623s13.622 6.111 13.622 13.623-6.11 13.622-13.622 13.622-13.622-6.11-13.622-13.622z" fill="#2b4365" data-original="#000000" style=""/><path d="m307.543 136.201c0 4.143 3.357 7.5 7.5 7.5h90.229c4.143 0 7.5-3.357 7.5-7.5s-3.357-7.5-7.5-7.5h-90.229c-4.143 0-7.5 3.358-7.5 7.5z" fill="#2b4365" data-original="#000000" style=""/><path d="m405.271 161.838h-38.533c-4.143 0-7.5 3.357-7.5 7.5s3.357 7.5 7.5 7.5h38.533c4.143 0 7.5-3.357 7.5-7.5s-3.357-7.5-7.5-7.5z" fill="#2b4365" data-original="#000000" style=""/><path d="m395.271 453.771c-2.233 0-3.635-1.576-6.986-6.64-3.522-5.32-8.845-13.36-19.494-13.36s-15.972 8.04-19.494 13.36c-3.352 5.063-4.753 6.64-6.986 6.64-2.235 0-3.637-1.577-6.99-6.641-3.521-5.32-8.845-13.359-19.495-13.359s-15.974 8.04-19.496 13.359c-3.353 5.063-4.754 6.641-6.988 6.641-4.143 0-7.5 3.357-7.5 7.5s3.357 7.5 7.5 7.5c10.65 0 15.974-8.04 19.496-13.359 3.353-5.063 4.754-6.641 6.988-6.641s3.636 1.576 6.988 6.641c3.523 5.319 8.847 13.359 19.497 13.359 10.649 0 15.972-8.04 19.494-13.36 3.352-5.063 4.753-6.64 6.986-6.64s3.635 1.576 6.986 6.64c3.522 5.32 8.845 13.36 19.494 13.36 4.143 0 7.5-3.357 7.5-7.5s-3.357-7.5-7.5-7.5z" fill="#2b4365" data-original="#000000" style=""/><path d="m450.209 380.021c-4.143 0-7.5 3.357-7.5 7.5v92.25c0 9.5-7.729 17.229-17.229 17.229h-338.96c-9.5 0-17.229-7.729-17.229-17.229v-447.542c0-9.5 7.729-17.229 17.229-17.229h52.321c4.143 0 7.5-3.357 7.5-7.5s-3.357-7.5-7.5-7.5h-52.321c-17.771 0-32.229 14.458-32.229 32.229v447.543c0 17.77 14.458 32.228 32.229 32.228h338.96c17.771 0 32.229-14.458 32.229-32.229v-92.25c0-4.142-3.357-7.5-7.5-7.5z" fill="#2b4365" data-original="#000000" style=""/><path d="m425.48 0h-256.652c-4.143 0-7.5 3.357-7.5 7.5s3.357 7.5 7.5 7.5h256.652c9.5 0 17.229 7.729 17.229 17.229v325.306c0 4.143 3.357 7.5 7.5 7.5s7.5-3.357 7.5-7.5v-325.306c0-17.771-14.458-32.229-32.229-32.229z" fill="#2b4365" data-original="#000000" style=""/><path d="m109.908 221.355v155.778c0 9.714 7.902 17.616 17.616 17.616h73.805c4.143 0 7.5-3.357 7.5-7.5s-3.357-7.5-7.5-7.5h-73.805c-1.442 0-2.616-1.174-2.616-2.616v-38.836h189.509v41.452h-83.101c-4.143 0-7.5 3.357-7.5 7.5s3.357 7.5 7.5 7.5h153.16c9.714 0 17.616-7.902 17.616-17.616v-155.778c0-9.714-7.902-17.616-17.616-17.616h-256.952c-9.713 0-17.616 7.903-17.616 17.616zm17.616-2.616h186.893v41.453h-189.509v-38.837c0-1.442 1.174-2.616 2.616-2.616zm-2.616 104.559v-48.105h189.509v48.105zm262.185 0h-57.676v-48.105h57.676zm-2.616 56.452h-55.06v-41.452h57.676v38.836c0 1.442-1.174 2.616-2.616 2.616zm2.616-158.395v38.837h-57.676v-41.453h55.06c1.442 0 2.616 1.174 2.616 2.616z" fill="#2b4365" data-original="#000000" style=""/></g></g></svg>
