<svg data-v-fde0c5aa="" xmlns="http://www.w3.org/2000/svg" viewBox="0 0 20 400" width="128" height="128"><!----><defs data-v-fde0c5aa=""><!----></defs><defs data-v-fde0c5aa=""><!----></defs><g data-v-fde0c5aa="" id="e67455bd-e9fb-49c9-b1b2-34e649b586aa" fill="#1a1b1e"><path d=""></path></g><defs data-v-fde0c5aa=""><!----></defs><g data-v-fde0c5aa="" id="a949bb55-5969-4b19-b33c-076bd12ccf0b" stroke="none" fill="#4263eb"><path d="M90 39c0-14.3-11.7-26-26-26S38 24.7 38 39s11.7 26 26 26 26-11.7 26-26zm-46 0l12.5-7.3c2-1.2 4.5.3 4.5 2.6V39c0 1.7 1.3 3 3 3h19.7C82.3 51.6 74 59 64 59c-11 0-20-9-20-20zM114.6 91.7c-.8-1.4-2.7-1.9-4.1-1.1-1.4.8-1.9 2.7-1.1 4.1l10.8 18.6c.5.8.8 1.7.8 2.7 0 2.8-2.2 5-5 5h-14.7l3.2-38.3c.2-2.5-.6-5-2.3-6.8S98 73 95.5 73H31.7c-2.5 0-5 1.1-6.7 3-1.7 1.9-2.5 4.4-2.3 7l4 38.1H12c-2.8 0-5-2.2-5-5 0-.9.3-1.8.7-2.6.1-.1 10.9-18.7 10.9-18.7.8-1.4.3-3.3-1.1-4.1-1.4-.8-3.3-.3-4.1 1.1L2.8 110c-1.2 1.8-1.8 3.9-1.8 6 0 6.1 4.9 11 11 11h104c6.1 0 11-4.9 11-11 0-2.1-.6-4.2-1.8-6l-10.6-18.3zM63 105c-3.3 0-6-2.7-6-6s2.7-6 6-6 6 2.7 6 6-2.7 6-6 6z"></path></g><!----></svg>