<svg data-v-423bf9ae="" xmlns="http://www.w3.org/2000/svg" viewBox="0 0 417 90" class="iconLeft"><!----><!----><!----><g data-v-423bf9ae="" id="79d9ff1b-1098-41d7-97aa-0686749f3529" fill="white" transform="matrix(5.830903811703725,0,0,5.830903811703725,110.57802954984498,2.3469397142517323)"><path d="M0.99 12.29L0.99 2.69L6.06 2.69L6.06 2.69Q7.62 2.69 8.41 3.46L8.41 3.46L8.41 3.46Q9.20 4.23 9.20 5.60L9.20 5.60L9.20 5.60Q9.20 6.58 8.76 7.27L8.76 7.27L8.76 7.27Q8.33 7.97 7.49 8.30L7.49 8.30L9.55 12.29L7.59 12.29L5.77 8.58L2.79 8.58L2.79 12.29L0.99 12.29ZM2.79 7.07L5.92 7.07L5.92 7.07Q6.61 7.07 7 6.68L7 6.68L7 6.68Q7.39 6.29 7.39 5.60L7.39 5.60L7.39 5.60Q7.39 4.94 7.01 4.58L7.01 4.58L7.01 4.58Q6.64 4.21 5.92 4.21L5.92 4.21L2.79 4.21L2.79 7.07ZM14.15 12.46L14.15 12.46Q12.36 12.46 11.49 11.52L11.49 11.52L11.49 11.52Q10.63 10.58 10.63 8.61L10.63 8.61L10.63 8.61Q10.63 6.64 11.50 5.70L11.50 5.70L11.50 5.70Q12.38 4.76 14.15 4.76L14.15 4.76L14.15 4.76Q15.78 4.76 16.58 5.67L16.58 5.67L16.58 5.67Q17.39 6.58 17.39 8.51L17.39 8.51L17.39 9.02L12.33 9.02L12.33 9.02Q12.38 10.11 12.80 10.62L12.80 10.62L12.80 10.62Q13.23 11.13 14.17 11.13L14.17 11.13L14.17 11.13Q14.87 11.13 15.30 10.77L15.30 10.77L15.30 10.77Q15.74 10.42 15.74 9.72L15.74 9.72L17.39 9.72L17.39 9.72Q17.39 11.07 16.49 11.77L16.49 11.77L16.49 11.77Q15.60 12.46 14.15 12.46L14.15 12.46ZM12.36 7.83L15.64 7.83L15.64 7.83Q15.64 6.09 14.15 6.09L14.15 6.09L14.15 6.09Q13.31 6.09 12.89 6.52L12.89 6.52L12.89 6.52Q12.46 6.94 12.36 7.83L12.36 7.83ZM18.87 12.29L18.87 2.17L20.55 2.17L20.55 12.29L18.87 12.29ZM24.29 12.46L24.29 12.46Q23.39 12.46 22.67 12.02L22.67 12.02L22.67 12.02Q21.95 11.58 21.95 10.39L21.95 10.39L21.95 10.39Q21.95 8.97 23.16 8.40L23.16 8.40L23.16 8.40Q24.36 7.83 26.57 7.83L26.57 7.83L26.57 7.21L26.57 7.21Q26.57 6.68 26.30 6.38L26.30 6.38L26.30 6.38Q26.03 6.09 25.31 6.09L25.31 6.09L25.31 6.09Q24.57 6.09 24.26 6.33L24.26 6.33L24.26 6.33Q23.95 6.57 23.95 6.92L23.95 6.92L23.95 7.11L22.33 7.11L22.33 7.11Q22.32 7.03 22.32 6.80L22.32 6.80L22.32 6.80Q22.32 5.85 23.14 5.31L23.14 5.31L23.14 5.31Q23.95 4.76 25.31 4.76L25.31 4.76L25.31 4.76Q26.78 4.76 27.52 5.36L27.52 5.36L27.52 5.36Q28.25 5.96 28.25 7.08L28.25 7.08L28.25 10.60L28.25 10.60Q28.25 10.85 28.39 10.97L28.39 10.97L28.39 10.97Q28.53 11.09 28.74 11.09L28.74 11.09L29.19 11.09L29.19 12.24L29.19 12.24Q28.74 12.45 28.14 12.45L28.14 12.45L28.14 12.45Q27.59 12.45 27.23 12.18L27.23 12.18L27.23 12.18Q26.87 11.91 26.74 11.45L26.74 11.45L26.64 11.45L26.64 11.45Q25.82 12.46 24.29 12.46L24.29 12.46ZM24.79 11.12L24.79 11.12Q25.62 11.12 26.10 10.64L26.10 10.64L26.10 10.64Q26.57 10.16 26.57 9.35L26.57 9.35L26.57 9.02L26.57 9.02Q25.21 9.02 24.44 9.28L24.44 9.28L24.44 9.28Q23.67 9.53 23.67 10.22L23.67 10.22L23.67 10.22Q23.67 11.12 24.79 11.12L24.79 11.12ZM30.28 12.29L30.28 4.93L31.67 4.93L31.81 5.91L31.91 5.91L31.91 5.91Q32.31 5.36 32.91 5.06L32.91 5.06L32.91 5.06Q33.50 4.76 34.27 4.76L34.27 4.76L34.27 4.76Q35.39 4.76 36.02 5.37L36.02 5.37L36.02 5.37Q36.65 5.98 36.65 7.32L36.65 7.32L36.65 12.29L34.97 12.29L34.97 7.62L34.97 7.62Q34.97 6.86 34.63 6.54L34.63 6.54L34.63 6.54Q34.29 6.22 33.61 6.22L33.61 6.22L33.61 6.22Q32.91 6.22 32.44 6.72L32.44 6.72L32.44 6.72Q31.96 7.22 31.96 8.01L31.96 8.01L31.96 12.29L30.28 12.29ZM41.52 12.46L41.52 12.46Q39.79 12.46 38.95 11.52L38.95 11.52L38.95 11.52Q38.11 10.58 38.11 8.61L38.11 8.61L38.11 8.61Q38.11 6.64 38.96 5.70L38.96 5.70L38.96 5.70Q39.80 4.76 41.52 4.76L41.52 4.76L41.52 4.76Q43.02 4.76 43.83 5.50L43.83 5.50L43.83 5.50Q44.65 6.24 44.65 7.69L44.65 7.69L42.94 7.69L42.94 7.69Q42.94 6.90 42.59 6.51L42.59 6.51L42.59 6.51Q42.24 6.12 41.50 6.12L41.50 6.12L41.50 6.12Q40.63 6.12 40.22 6.71L40.22 6.71L40.22 6.71Q39.82 7.31 39.82 8.54L39.82 8.54L39.82 8.71L39.82 8.71Q39.82 9.94 40.23 10.52L40.23 10.52L40.23 10.52Q40.64 11.10 41.57 11.10L41.57 11.10L41.57 11.10Q42.28 11.10 42.65 10.70L42.65 10.70L42.65 10.70Q43.02 10.29 43.02 9.53L43.02 9.53L44.65 9.53L44.65 9.53Q44.65 10.92 43.83 11.69L43.83 11.69L43.83 11.69Q43.01 12.46 41.52 12.46L41.52 12.46ZM49.15 12.46L49.15 12.46Q47.36 12.46 46.49 11.52L46.49 11.52L46.49 11.52Q45.63 10.58 45.63 8.61L45.63 8.61L45.63 8.61Q45.63 6.64 46.50 5.70L46.50 5.70L46.50 5.70Q47.38 4.76 49.15 4.76L49.15 4.76L49.15 4.76Q50.78 4.76 51.58 5.67L51.58 5.67L51.58 5.67Q52.39 6.58 52.39 8.51L52.39 8.51L52.39 9.02L47.33 9.02L47.33 9.02Q47.38 10.11 47.80 10.62L47.80 10.62L47.80 10.62Q48.23 11.13 49.17 11.13L49.17 11.13L49.17 11.13Q49.87 11.13 50.30 10.77L50.30 10.77L50.30 10.77Q50.74 10.42 50.74 9.72L50.74 9.72L52.39 9.72L52.39 9.72Q52.39 11.07 51.49 11.77L51.49 11.77L51.49 11.77Q50.60 12.46 49.15 12.46L49.15 12.46ZM47.36 7.83L50.64 7.83L50.64 7.83Q50.64 6.09 49.15 6.09L49.15 6.09L49.15 6.09Q48.31 6.09 47.89 6.52L47.89 6.52L47.89 6.52Q47.46 6.94 47.36 7.83L47.36 7.83Z"></path></g><!----><g data-v-423bf9ae="" id="0f76f259-da68-465b-95e6-660f5d31fe17" transform="matrix(1.8528967297137975,0,0,1.8528967297137975,-10.29269535084152,-13.590679734528784)" stroke="none" fill="white"><path d="M7 56.3H57c.6 0 1-.4 1-1s-.4-1-1-1h-6.2V34.9c0-.6-.4-1-1-1h-2.2c-.5-4.2-4.1-7.5-8.4-7.5h-1.8c1.8-1.5 3-3.8 3-6.4v-4.2c1.3-.8 2.5-2 3.6-3.6.5-.8.5-1.8 0-2.5-.6-.8-1.5-1.1-2.4-.8-4.5 1.3-7.5.3-9-.4-1.6-.8-3.3-1-4.9-.5-4.2 1.2-4.8 5.7-4.5 7.9 0 .2.1.4.3.6V20c0 2.6 1.2 4.9 3 6.4h-1.8c-4.3 0-7.9 3.3-8.4 7.5h-2.2c-.6 0-1 .4-1 1v19.3H7c-.6 0-1 .4-1 1s.4 1.1 1 1.1zM28.3 9.9c1.1-.3 2.3-.2 3.4.4 1.7.8 5.3 2 10.4.5 0 0 .1 0 .2.1s0 .2 0 .2c-1.7 2.4-3.6 3.8-5.8 4.1-3.5.5-6.6-1.7-6.6-1.8-.2-.1-.4-.2-.6-.2-.3 0-.5.1-.7.3-.8.9-2.3 1.1-3.3 1.1 0-1.3.4-4 3-4.7zM25.6 20v-3.3c1.1-.1 2.6-.3 3.8-1.2 1.1.7 3.3 1.8 6 1.8.5 0 .9 0 1.4-.1.5-.1 1.1-.2 1.6-.4V20c0 3.5-2.9 6.4-6.4 6.4-3.5 0-6.4-2.8-6.4-6.4zm-.8 8.4h14.4c3.2 0 5.9 2.4 6.4 5.5H18.4c.5-3.1 3.2-5.5 6.4-5.5zm-9.6 7.5h33.6v18.3H15.2V35.9z"></path><path d="M32 41.6c-3 0-5.3 1.5-5.3 3.4s2.3 3.4 5.3 3.4 5.3-1.5 5.3-3.4-2.3-3.4-5.3-3.4zm0 4.8c-2 0-3.3-.8-3.3-1.4s1.3-1.4 3.3-1.4 3.3.8 3.3 1.4-1.3 1.4-3.3 1.4z"></path></g><!----></svg>