<svg xmlns="http://www.w3.org/2000/svg" width="348" height="68" viewBox="0 0 348 68"><path fill="#ffffff" d="M20.70 44.60L20.70 65.70Q19.80 65.90 18.15 66.20Q16.50 66.50 14.60 66.50L14.60 66.50Q10.80 66.50 9.25 65.10Q7.70 63.70 7.70 60.40L7.70 60.40L7.70 10.20Q7.70 8.30 8.70 7.30Q9.70 6.30 11.50 5.70L11.50 5.70Q14.70 4.60 19.05 4.15Q23.40 3.70 28 3.70L28 3.70Q41.20 3.70 47.80 9.15Q54.40 14.60 54.40 24.20L54.40 24.20Q54.40 30.50 51.10 35.15Q47.80 39.80 42 42.30L42 42.30Q46.40 48 50.45 53.15Q54.50 58.30 56.50 61.20L56.50 61.20Q55.70 63.80 53.70 65.25Q51.70 66.70 49.30 66.70L49.30 66.70Q46.20 66.70 44.55 65.30Q42.90 63.90 41.30 61.50L41.30 61.50L30 44.60L20.70 44.60ZM20.50 34.40L28.70 34.40Q34.40 34.40 37.85 31.90Q41.30 29.40 41.30 24.30L41.30 24.30Q41.30 14.20 27.80 14.20L27.80 14.20Q25.80 14.20 23.95 14.40Q22.10 14.60 20.50 14.80L20.50 14.80L20.50 34.40ZM104.30 43.80L76.50 47.80Q77.90 52.90 81.70 55.20Q85.50 57.50 91.10 57.50L91.10 57.50Q95.30 57.50 98.85 56.25Q102.40 55 104.60 53.60L104.60 53.60Q106 54.40 106.90 55.80Q107.80 57.20 107.80 58.80L107.80 58.80Q107.80 60.80 106.45 62.35Q105.10 63.90 102.75 65Q100.40 66.10 97.20 66.70Q94 67.30 90.30 67.30L90.30 67.30Q84.40 67.30 79.55 65.70Q74.70 64.10 71.25 60.85Q67.80 57.60 65.85 52.80Q63.90 48 63.90 41.60L63.90 41.60Q63.90 35.40 65.80 30.80Q67.70 26.20 70.95 23.10Q74.20 20.00 78.50 18.50Q82.80 17.00 87.60 17.00L87.60 17.00Q92.50 17.00 96.60 18.55Q100.70 20.10 103.60 22.85Q106.50 25.60 108.15 29.45Q109.80 33.30 109.80 37.80L109.80 37.80Q109.80 40.60 108.35 42Q106.90 43.40 104.30 43.80L104.30 43.80ZM87.60 26.50L87.60 26.50Q82.70 26.50 79.40 29.75Q76.10 33.00 75.70 39L75.70 39L97.90 35.70Q97.50 32.00 95 29.25Q92.50 26.50 87.60 26.50ZM132.90 65.70L132.90 65.70Q132.10 65.90 130.55 66.20Q129 66.50 127.20 66.50L127.20 66.50Q123.60 66.50 121.95 65.20Q120.30 63.90 120.30 60.60L120.30 60.60L120.30 0.80Q121.10 0.50 122.65 0.25Q124.20 0 126.00 0L126.00 0Q129.60 0 131.25 1.30Q132.90 2.60 132.90 5.90L132.90 5.90L132.90 65.70ZM164.90 57.70L164.90 57.70Q167.80 57.70 170.20 57.15Q172.60 56.60 173.70 55.80L173.70 55.80L173.70 44.70L164 45.60Q160 46 157.90 47.35Q155.80 48.70 155.80 51.60L155.80 51.60Q155.80 54.50 157.95 56.10Q160.10 57.70 164.90 57.70ZM164.50 17.00L164.50 17.00Q174.30 17.00 180.15 21.20Q186 25.40 186 34.20L186 34.20L186 57.30Q186 59.70 184.80 61.10Q183.60 62.50 181.80 63.60L181.80 63.60Q179 65.30 174.70 66.30Q170.40 67.30 164.90 67.30L164.90 67.30Q154.90 67.30 149.15 63.45Q143.40 59.60 143.40 51.90L143.40 51.90Q143.40 45.20 147.65 41.65Q151.90 38.10 160 37.30L160 37.30L173.70 35.90L173.70 34.10Q173.70 30.30 170.95 28.50Q168.20 26.70 163.20 26.70L163.20 26.70Q159.30 26.70 155.60 27.65Q151.90 28.60 149 30.00L149 30.00Q147.90 29.20 147.15 27.85Q146.40 26.50 146.40 24.90L146.40 24.90Q146.40 22.90 147.35 21.65Q148.30 20.40 150.40 19.40L150.40 19.40Q153.30 18.20 157 17.60Q160.70 17.00 164.50 17.00ZM229.80 35.30L229.80 35.30Q229.80 31.00 227.35 29.00Q224.90 27.00 220.70 27.00L220.70 27.00Q217.80 27.00 215.35 27.70Q212.90 28.40 211.10 29.50L211.10 29.50L211.10 65.70Q210.20 65.90 208.70 66.20Q207.20 66.50 205.30 66.50L205.30 66.50Q201.80 66.50 200.10 65.20Q198.40 63.90 198.40 60.60L198.40 60.60L198.40 28.50Q198.40 26.10 199.40 24.60Q200.40 23.10 202.50 21.70L202.50 21.70Q205.40 19.70 210.20 18.35Q215.00 17.00 220.80 17.00L220.80 17.00Q231.10 17.00 236.75 21.55Q242.40 26.10 242.40 34.90L242.40 34.90L242.40 65.70Q241.60 65.90 240.05 66.20Q238.50 66.50 236.70 66.50L236.70 66.50Q233.10 66.50 231.45 65.20Q229.80 63.90 229.80 60.60L229.80 60.60L229.80 35.30ZM279.60 27.10L279.60 27.10Q276.60 27.10 274.05 28.10Q271.50 29.10 269.65 31.00Q267.80 32.90 266.70 35.70Q265.60 38.50 265.60 42.20L265.60 42.20Q265.60 49.60 269.50 53.35Q273.40 57.10 279.60 57.10L279.60 57.10Q283.10 57.10 285.65 56.15Q288.20 55.20 290.20 54.10L290.20 54.10Q291.60 55.10 292.45 56.40Q293.30 57.70 293.30 59.40L293.30 59.40Q293.30 62.80 289.30 65Q285.30 67.20 278.50 67.20L278.50 67.20Q272.80 67.20 268.05 65.65Q263.30 64.10 259.90 60.95Q256.50 57.80 254.65 53.10Q252.80 48.40 252.80 42.20L252.80 42.20Q252.80 35.90 254.80 31.15Q256.80 26.40 260.25 23.25Q263.70 20.10 268.30 18.55Q272.90 17.00 278.10 17.00L278.10 17.00Q284.80 17.00 288.80 19.35Q292.80 21.70 292.80 25.10L292.80 25.10Q292.80 26.70 291.95 28.00Q291.10 29.30 290 30.10L290 30.10Q288 29.00 285.55 28.05Q283.10 27.10 279.60 27.10ZM341.60 43.80L313.80 47.80Q315.20 52.90 319.00 55.20Q322.80 57.50 328.40 57.50L328.40 57.50Q332.60 57.50 336.15 56.25Q339.70 55 341.90 53.60L341.90 53.60Q343.30 54.40 344.20 55.80Q345.10 57.20 345.10 58.80L345.10 58.80Q345.10 60.80 343.75 62.35Q342.40 63.90 340.05 65Q337.70 66.10 334.50 66.70Q331.30 67.30 327.60 67.30L327.60 67.30Q321.70 67.30 316.85 65.70Q312.00 64.10 308.55 60.85Q305.10 57.60 303.15 52.80Q301.20 48 301.20 41.60L301.20 41.60Q301.20 35.40 303.10 30.80Q305.00 26.20 308.25 23.10Q311.50 20.00 315.80 18.50Q320.10 17.00 324.90 17.00L324.90 17.00Q329.80 17.00 333.90 18.55Q338.00 20.10 340.90 22.85Q343.80 25.60 345.45 29.45Q347.10 33.30 347.10 37.80L347.10 37.80Q347.10 40.60 345.65 42Q344.20 43.40 341.60 43.80L341.60 43.80ZM324.90 26.50L324.90 26.50Q320.00 26.50 316.70 29.75Q313.40 33.00 313.00 39L313.00 39L335.20 35.70Q334.80 32.00 332.30 29.25Q329.80 26.50 324.90 26.50Z"></path></svg>