<?xml version="1.0"?>
<svg xmlns="http://www.w3.org/2000/svg" xmlns:xlink="http://www.w3.org/1999/xlink" xmlns:svgjs="http://svgjs.com/svgjs" version="1.1" width="512" height="512" x="0" y="0" viewBox="0 0 64 64" style="enable-background:new 0 0 512 512" xml:space="preserve" class=""><g transform="matrix(1,0,0,1,0,1.7763568394002505e-14)"><path xmlns="http://www.w3.org/2000/svg" d="m18.73047 33.999a.99742.99742 0 0 1 -.88477-.5332 16.02338 16.02338 0 0 1 -1.8457-7.4658 1 1 0 0 1 2 0 14.03215 14.03215 0 0 0 1.61328 6.53223 1.00036 1.00036 0 0 1 -.88281 1.46679z" fill="#ffffff" data-original="#000000" style="" class=""/><path xmlns="http://www.w3.org/2000/svg" d="m45.26953 33.999a1.00036 1.00036 0 0 1 -.88281-1.46679 14.03215 14.03215 0 0 0 1.61328-6.53221 1 1 0 0 1 2 0 16.02338 16.02338 0 0 1 -1.8457 7.46582.99742.99742 0 0 1 -.88477.53318z" fill="#ffffff" data-original="#000000" style="" class=""/><path xmlns="http://www.w3.org/2000/svg" d="m17 27a.99943.99943 0 0 1 -1-1v-6.7373a1 1 0 1 1 2 0v6.7373a.99943.99943 0 0 1 -1 1z" fill="#ffffff" data-original="#000000" style="" class=""/><path xmlns="http://www.w3.org/2000/svg" d="m47 27a.99943.99943 0 0 1 -1-1v-9.001a1 1 0 0 1 2 0v9.001a.99943.99943 0 0 1 -1 1z" fill="#ffffff" data-original="#000000" style="" class=""/><path xmlns="http://www.w3.org/2000/svg" d="m47 17.999a.99942.99942 0 0 1 -1-1 14.998 14.998 0 0 0 -29.99609 0 1 1 0 0 1 -2 0 16.998 16.998 0 0 1 33.99609 0 .99942.99942 0 0 1 -1 1z" fill="#ffffff" data-original="#000000" style="" class=""/><path xmlns="http://www.w3.org/2000/svg" d="m47.001 21.999a.99941.99941 0 0 1 -.79493-.3916c-4.43947-5.7949-6.60939-5.05955-11.36427-3.4404a37.19546 37.19546 0 0 1 -19.99414 1.81934.99959.99959 0 1 1 .3125-1.97461 35.49631 35.49631 0 0 0 19.03808-1.73828c4.99024-1.69825 8.28516-2.81645 13.59576 4.11718a.99994.99994 0 0 1 -.793 1.60839z" fill="#ffffff" data-original="#000000" style="" class=""/><path xmlns="http://www.w3.org/2000/svg" d="m15.00391 19.999a.99942.99942 0 0 1 -1-1v-2a1 1 0 0 1 2 0v2a.99942.99942 0 0 1 -1 1z" fill="#ffffff" data-original="#000000" style="" class=""/><path xmlns="http://www.w3.org/2000/svg" d="m40 17.01074a1 1 0 0 1 -.74414-1.668l5.39062-6.01172a1 1 0 0 1 1.48829 1.33598l-5.39063 6.01172a.99838.99838 0 0 1 -.74414.33202z" fill="#ffffff" data-original="#000000" style="" class=""/><path xmlns="http://www.w3.org/2000/svg" d="m51 63.999h-38a3.00328 3.00328 0 0 1 -3-3l-1.99707-25.92283a3.01648 3.01648 0 0 1 2.99707-3.07717h42a3.00328 3.00328 0 0 1 3 3l-2 26.042a3.0035 3.0035 0 0 1 -3 2.958zm-40-30a1.00068 1.00068 0 0 0 -1 1l1.99707 25.92286a1.02417 1.02417 0 0 0 1.00293 1.07714h38a1.00067 1.00067 0 0 0 1-1c0-.02539.001-.05078.00293-.07714l2-26a.9928.9928 0 0 0 -1.00293-.92286z" fill="#ffffff" data-original="#000000" style="" class=""/><path xmlns="http://www.w3.org/2000/svg" d="m32 52.999a5 5 0 1 1 5-5 5.00588 5.00588 0 0 1 -5 5zm0-8a3 3 0 1 0 3 3 3.00328 3.00328 0 0 0 -3-3z" fill="#ffffff" data-original="#000000" style="" class=""/></g></svg>
