<?xml version="1.0" standalone="no"?>
<!DOCTYPE svg PUBLIC "-//W3C//DTD SVG 20010904//EN"
 "http://www.w3.org/TR/2001/REC-SVG-20010904/DTD/svg10.dtd">
<svg version="1.0" xmlns="http://www.w3.org/2000/svg"
 width="1080.000000pt" height="1080.000000pt" viewBox="0 0 1080.000000 1080.000000"
 preserveAspectRatio="xMidYMid meet">

<g transform="translate(0.000000,1080.000000) scale(0.100000,-0.100000)"
fill="#4c6ef5" stroke="none">
<path d="M5220 8939 c-1131 -54 -2171 -653 -2793 -1610 -407 -626 -600 -1339
-566 -2096 32 -716 275 -1391 707 -1966 574 -762 1426 -1260 2363 -1381 970
-126 1927 143 2709 760 120 95 408 387 521 529 276 345 466 696 603 1110 125
378 179 715 179 1120 -1 1121 -517 2154 -1410 2827 -492 370 -1061 602 -1673
683 -101 13 -175 18 -410 29 -41 1 -145 0 -230 -5z m495 -1722 c287 -53 465
-119 640 -237 83 -56 206 -184 253 -263 183 -305 200 -728 43 -1063 -54 -115
-112 -196 -211 -295 -120 -120 -296 -231 -446 -279 -57 -18 -58 -21 -27 -39
86 -53 145 -127 386 -484 135 -199 360 -531 501 -737 l256 -375 -327 -3 c-208
-2 -353 1 -395 9 -75 12 -139 48 -178 101 -13 18 -206 310 -428 648 -222 338
-416 628 -430 644 -55 58 -97 69 -309 74 l-193 5 0 -742 0 -741 -360 0 -360 0
0 1901 0 1900 748 -4 c641 -3 760 -6 837 -20z"/>
<path d="M4850 6060 l0 -620 268 0 c302 0 392 11 532 63 162 61 260 148 330
291 55 110 73 204 67 331 -7 123 -34 213 -88 294 -50 74 -100 119 -188 165
-145 76 -281 96 -653 96 l-268 0 0 -620z"/>
</g>
</svg>
